HIERARCHY
ROOT Hips
{
	OFFSET 0.000000 100.481300 0.000000
	CHANNELS 6 Xposition Yposition Zposition Xrotation Yrotation Zrotation
	JOINT Spine
	{
		OFFSET -0.279200 12.230698 -2.892100
		CHANNELS 3 Xrotation Yrotation Zrotation
		JOINT Spine1
		{
			OFFSET -0.325700 14.269203 -3.374200
			CHANNELS 3 Xrotation Yrotation Zrotation
			JOINT Spine2
			{
				OFFSET -0.372300 16.307602 -0.352600
				CHANNELS 3 Xrotation Yrotation Zrotation
				JOINT Neck
				{
					OFFSET -0.418800 17.814194 8.416900
					CHANNELS 3 Xrotation Yrotation Zrotation
					JOINT Head
					{
						OFFSET 0.000000 7.031097 3.806800
						CHANNELS 3 Xrotation Yrotation Zrotation
						JOINT HeadTop_End
						{
							OFFSET 0.000000 24.646606 12.978600
							CHANNELS 3 Xrotation Yrotation Zrotation
							End Site
							{
								OFFSET 0.000000 27.854965 0.000000
							}
						}
					}
				}
				JOINT LeftShoulder
				{
					OFFSET 16.952999 14.495407 -7.737500
					CHANNELS 3 Xrotation Yrotation Zrotation
					JOINT LeftArm
					{
						OFFSET 9.308998 -2.777710 0.208600
						CHANNELS 3 Xrotation Yrotation Zrotation
						JOINT LeftForeArm
						{
							OFFSET 29.972298 0.000000 0.000000
							CHANNELS 3 Xrotation Yrotation Zrotation
							JOINT LeftHand
							{
								OFFSET 26.026505 0.000000 0.000000
								CHANNELS 3 Xrotation Yrotation Zrotation
								JOINT LeftHandThumb1
								{
									OFFSET 12.240501 -7.147949 9.207150
									CHANNELS 3 Xrotation Yrotation Zrotation
									JOINT LeftHandThumb2
									{
										OFFSET 4.138618 -2.389435 2.389433
										CHANNELS 3 Xrotation Yrotation Zrotation
										JOINT LeftHandThumb3
										{
											OFFSET 2.726913 -1.574387 1.574386
											CHANNELS 3 Xrotation Yrotation Zrotation
											JOINT LeftHandThumb4
											{
												OFFSET 3.941010 -2.275345 2.275342
												CHANNELS 3 Xrotation Yrotation Zrotation
												End Site
												{
													OFFSET -0.005798 5.087799 0.009903
												}
											}
										}
									}
								}
								JOINT LeftHandIndex1
								{
									OFFSET 24.424698 -1.985611 5.953459
									CHANNELS 3 Xrotation Yrotation Zrotation
									JOINT LeftHandIndex2
									{
										OFFSET 6.426697 0.000000 0.000000
										CHANNELS 3 Xrotation Yrotation Zrotation
										JOINT LeftHandIndex3
										{
											OFFSET 5.337898 0.000000 0.000000
											CHANNELS 3 Xrotation Yrotation Zrotation
											JOINT LeftHandIndex4
											{
												OFFSET 4.409401 0.000000 0.000000
												CHANNELS 3 Xrotation Yrotation Zrotation
												End Site
												{
													OFFSET 0.000000 4.409363 0.014373
												}
											}
										}
									}
								}
								JOINT LeftHandMiddle1
								{
									OFFSET 23.810104 0.000000 0.000000
									CHANNELS 3 Xrotation Yrotation Zrotation
									JOINT LeftHandMiddle2
									{
										OFFSET 7.176498 0.000000 0.000000
										CHANNELS 3 Xrotation Yrotation Zrotation
										JOINT LeftHandMiddle3
										{
											OFFSET 6.774902 0.000000 0.000000
											CHANNELS 3 Xrotation Yrotation Zrotation
											JOINT LeftHandMiddle4
											{
												OFFSET 5.403328 0.000000 0.000000
												CHANNELS 3 Xrotation Yrotation Zrotation
												End Site
												{
													OFFSET -0.027702 5.403244 0.017414
												}
											}
										}
									}
								}
								JOINT LeftHandRing1
								{
									OFFSET 22.908401 -0.839279 -6.020567
									CHANNELS 3 Xrotation Yrotation Zrotation
									JOINT LeftHandRing2
									{
										OFFSET 6.337502 0.000000 0.000000
										CHANNELS 3 Xrotation Yrotation Zrotation
										JOINT LeftHandRing3
										{
											OFFSET 5.779297 0.000000 0.000000
											CHANNELS 3 Xrotation Yrotation Zrotation
											JOINT LeftHandRing4
											{
												OFFSET 4.965698 0.000000 0.000000
												CHANNELS 3 Xrotation Yrotation Zrotation
												End Site
												{
													OFFSET 0.000000 4.965668 0.016186
												}
											}
										}
									}
								}
								JOINT LeftHandPinky1
								{
									OFFSET 20.037003 -1.530319 -10.950146
									CHANNELS 3 Xrotation Yrotation Zrotation
									JOINT LeftHandPinky2
									{
										OFFSET 5.254700 0.000000 0.000000
										CHANNELS 3 Xrotation Yrotation Zrotation
										JOINT LeftHandPinky3
										{
											OFFSET 4.810204 0.000000 0.000000
											CHANNELS 3 Xrotation Yrotation Zrotation
											JOINT LeftHandPinky4
											{
												OFFSET 3.647202 0.000000 0.000000
												CHANNELS 3 Xrotation Yrotation Zrotation
												End Site
												{
													OFFSET 0.000000 3.647186 0.011889
												}
											}
										}
									}
								}
							}
						}
					}
				}
				JOINT RightShoulder
				{
					OFFSET -15.141001 14.495407 -7.737500
					CHANNELS 3 Xrotation Yrotation Zrotation
					JOINT RightArm
					{
						OFFSET -9.308998 -2.777710 0.208500
						CHANNELS 3 Xrotation Yrotation Zrotation
						JOINT RightForeArm
						{
							OFFSET -29.972300 0.000000 0.000000
							CHANNELS 3 Xrotation Yrotation Zrotation
							JOINT RightHand
							{
								OFFSET -26.026505 0.000000 0.000000
								CHANNELS 3 Xrotation Yrotation Zrotation
								JOINT RightHandThumb1
								{
									OFFSET -12.240601 -7.148026 9.207092
									CHANNELS 3 Xrotation Yrotation Zrotation
									JOINT RightHandThumb2
									{
										OFFSET -4.138618 -2.389435 2.389433
										CHANNELS 3 Xrotation Yrotation Zrotation
										JOINT RightHandThumb3
										{
											OFFSET -2.726974 -1.574417 1.574421
											CHANNELS 3 Xrotation Yrotation Zrotation
											JOINT RightHandThumb4
											{
												OFFSET -3.941010 -2.275345 2.275343
												CHANNELS 3 Xrotation Yrotation Zrotation
												End Site
												{
													OFFSET 0.005814 5.087799 0.009927
												}
											}
										}
									}
								}
								JOINT RightHandIndex1
								{
									OFFSET -24.424698 -1.985657 5.953444
									CHANNELS 3 Xrotation Yrotation Zrotation
									JOINT RightHandIndex2
									{
										OFFSET -6.426697 0.000000 0.000000
										CHANNELS 3 Xrotation Yrotation Zrotation
										JOINT RightHandIndex3
										{
											OFFSET -5.337898 0.000000 0.000000
											CHANNELS 3 Xrotation Yrotation Zrotation
											JOINT RightHandIndex4
											{
												OFFSET -4.409401 0.000000 0.000000
												CHANNELS 3 Xrotation Yrotation Zrotation
												End Site
												{
													OFFSET 0.000000 4.409363 0.014408
												}
											}
										}
									}
								}
								JOINT RightHandMiddle1
								{
									OFFSET -23.810097 0.000000 0.000000
									CHANNELS 3 Xrotation Yrotation Zrotation
									JOINT RightHandMiddle2
									{
										OFFSET -7.176498 0.000000 0.000000
										CHANNELS 3 Xrotation Yrotation Zrotation
										JOINT RightHandMiddle3
										{
											OFFSET -6.774902 0.000000 0.000000
											CHANNELS 3 Xrotation Yrotation Zrotation
											JOINT RightHandMiddle4
											{
												OFFSET -5.403328 0.000000 0.000000
												CHANNELS 3 Xrotation Yrotation Zrotation
												End Site
												{
													OFFSET 0.027702 5.403244 0.017457
												}
											}
										}
									}
								}
								JOINT RightHandRing1
								{
									OFFSET -22.908302 -0.839325 -6.020576
									CHANNELS 3 Xrotation Yrotation Zrotation
									JOINT RightHandRing2
									{
										OFFSET -6.337502 0.000000 0.000000
										CHANNELS 3 Xrotation Yrotation Zrotation
										JOINT RightHandRing3
										{
											OFFSET -5.779297 0.000000 0.000000
											CHANNELS 3 Xrotation Yrotation Zrotation
											JOINT RightHandRing4
											{
												OFFSET -4.965698 0.000000 0.000000
												CHANNELS 3 Xrotation Yrotation Zrotation
												End Site
												{
													OFFSET 0.000000 4.965668 0.016226
												}
											}
										}
									}
								}
								JOINT RightHandPinky1
								{
									OFFSET -20.037003 -1.530334 -10.950259
									CHANNELS 3 Xrotation Yrotation Zrotation
									JOINT RightHandPinky2
									{
										OFFSET -5.254700 0.000000 0.000000
										CHANNELS 3 Xrotation Yrotation Zrotation
										JOINT RightHandPinky3
										{
											OFFSET -4.810204 0.000000 0.000000
											CHANNELS 3 Xrotation Yrotation Zrotation
											JOINT RightHandPinky4
											{
												OFFSET -3.647202 0.000000 0.000000
												CHANNELS 3 Xrotation Yrotation Zrotation
												End Site
												{
													OFFSET 0.000000 3.647186 0.011917
												}
											}
										}
									}
								}
							}
						}
					}
				}
			}
		}
	}
	JOINT LeftUpLeg
	{
		OFFSET 15.427100 -6.655098 0.678600
		CHANNELS 3 Xrotation Yrotation Zrotation
		JOINT LeftLeg
		{
			OFFSET 4.081073 -39.591068 13.024000
			CHANNELS 3 Xrotation Yrotation Zrotation
			JOINT LeftFoot
			{
				OFFSET -4.081074 -37.707932 -15.979700
				CHANNELS 3 Xrotation Yrotation Zrotation
				JOINT LeftToeBase
				{
					OFFSET 5.346399 -15.068900 20.645000
					CHANNELS 3 Xrotation Yrotation Zrotation
					JOINT LeftToe_End
					{
						OFFSET 2.754700 0.931300 11.300900
						CHANNELS 3 Xrotation Yrotation Zrotation
						End Site
						{
							OFFSET 0.000000 11.669021 0.000000
						}
					}
				}
			}
		}
	}
	JOINT RightUpLeg
	{
		OFFSET -15.569500 -6.655098 0.678600
		CHANNELS 3 Xrotation Yrotation Zrotation
		JOINT RightLeg
		{
			OFFSET -4.081825 -39.591045 13.023800
			CHANNELS 3 Xrotation Yrotation Zrotation
			JOINT RightFoot
			{
				OFFSET 4.081824 -37.707954 -15.979600
				CHANNELS 3 Xrotation Yrotation Zrotation
				JOINT RightToeBase
				{
					OFFSET -5.346400 -15.068900 20.645000
					CHANNELS 3 Xrotation Yrotation Zrotation
					JOINT RightToe_End
					{
						OFFSET -2.754700 0.931300 11.300900
						CHANNELS 3 Xrotation Yrotation Zrotation
						End Site
						{
							OFFSET 0.000000 11.669021 0.000000
						}
					}
				}
			}
		}
	}
}
MOTION
Frames: 4
Frame Time: 0.033333
-0.503703 44.802544 12.464104 -42.022093 -4.388914 2.623139 7.351510 0.118836 -0.286426 14.693928 -0.516977 -3.333692 14.693921 -0.516974 -3.333691 9.913620 4.167818 -7.328176 -11.514559 -5.150032 7.485591 0.000001 -0.000000 -0.000000 1.601591 4.550842 -16.113717 -5.853069 -9.584807 -52.868615 62.652444 -137.259905 51.330852 14.164661 -35.143816 21.747976 -1.379395 25.639084 -13.119189 17.172205 -8.437576 13.899271 0.000005 0.000000 -0.000004 0.000000 -0.000001 -0.000000 -6.838515 -0.967399 -19.449201 -3.075831 -3.226592 -59.602874 0.000001 0.000006 -0.000001 -0.000000 0.000000 0.000001 1.304914 0.737024 -38.091176 -4.799482 -5.297621 -76.753786 0.000007 -0.000007 -0.000003 -0.000001 -0.000001 0.000000 -4.279200 6.270698 -49.296347 -2.499856 -4.176019 -73.016498 0.000001 0.000008 0.000003 -0.000002 0.000001 0.000000 -11.085871 1.672419 -65.591461 -1.086125 -6.078683 -62.950295 0.000001 -0.000001 -0.000002 0.000000 0.000001 -0.000001 1.092620 16.371950 10.139650 -1.199239 30.719783 61.357761 -39.779309 61.193017 39.771331 27.875817 8.183667 -14.221751 38.456103 17.919978 -17.612609 -0.642349 -0.093890 -1.289330 -0.000008 0.000015 0.000000 -0.000002 0.000002 0.000002 -7.305366 -4.237349 19.570275 -1.453482 1.411055 46.920801 -0.000002 0.000000 0.000001 0.000001 0.000000 0.000001 -0.076159 -1.630958 24.529067 -1.648082 2.994185 47.587465 -0.000002 0.000001 -0.000001 -0.000001 0.000000 0.000001 -0.284499 -1.861524 21.529002 -1.195923 3.953149 40.244769 -0.000003 0.000005 -0.000001 0.000001 -0.000000 -0.000000 1.330268 0.869766 21.924497 -1.079995 7.329707 32.084250 -0.000002 0.000002 -0.000002 -0.000000 -0.000001 -0.000001 -51.468901 12.817751 19.987854 85.537533 -0.420897 -4.069699 7.549063 -3.847475 12.075063 -1.124055 -0.048757 0.713743 -0.000000 -0.000001 0.000000 -62.512664 -2.931046 -16.549323 71.703469 6.849861 1.168587 7.110739 -0.788836 -10.163980 0.460827 -0.110548 0.263377 0.000002 -0.000000 -0.000001 
-0.486114 44.804008 12.458145 -42.312837 -4.301026 2.583071 7.410209 0.118168 -0.290207 14.811175 -0.520525 -3.360338 14.811170 -0.520524 -3.360338 10.001411 4.175992 -7.203594 -12.218592 -5.116446 7.472998 0.000001 -0.000000 -0.000000 1.648539 4.926429 -16.185216 -6.032552 -9.090823 -53.654913 61.687489 -137.705711 50.137055 13.218743 -35.121085 19.064919 -1.379391 25.639108 -13.119176 17.172204 -8.437580 13.899271 0.000007 0.000005 -0.000004 -0.000000 0.000001 -0.000001 -6.792497 -0.831685 -18.009513 -3.075832 -3.226590 -59.602874 -0.000003 0.000003 0.000000 -0.000001 -0.000002 0.000000 1.448138 0.927944 -35.666978 -4.799484 -5.297619 -76.753786 0.000007 -0.000007 -0.000002 0.000000 -0.000000 0.000000 -4.152019 6.384165 -46.878334 -2.499854 -4.176023 -73.016498 0.000001 0.000007 0.000003 0.000001 0.000002 0.000000 -10.968198 1.728842 -63.160467 -1.086123 -6.078686 -62.950295 -0.000001 -0.000001 -0.000001 0.000001 -0.000002 -0.000002 1.093428 16.246648 10.216890 -1.425932 30.947953 61.154447 -39.222341 61.198959 39.969130 28.077198 8.545380 -16.280990 35.361030 17.426302 -17.098264 -0.642350 -0.093887 -1.289331 -0.000010 0.000020 -0.000001 -0.000002 0.000000 0.000002 -7.330809 -4.167861 20.516135 -1.670429 1.603853 49.819345 -0.000003 -0.000000 0.000002 0.000000 -0.000001 0.000000 -0.122474 -1.532719 25.912489 -1.844047 3.164068 50.493772 -0.000002 0.000001 -0.000001 -0.000003 0.000001 -0.000001 -0.359834 -1.680234 23.585033 -1.362380 4.139463 43.153142 -0.000005 0.000002 0.000001 0.000002 -0.000000 0.000000 1.221251 1.124148 24.462094 -1.203797 7.514897 34.999095 0.000000 0.000002 -0.000001 0.000000 0.000001 -0.000001 -51.092134 12.932344 19.768350 85.597024 -0.118482 -3.966301 7.626193 -4.001057 12.815463 -1.655609 -0.039602 0.079176 -0.000000 0.000001 0.000000 -62.155848 -3.009208 -16.683482 71.703046 6.827141 1.175417 7.211414 -0.835650 -10.204430 0.497131 -0.110541 0.263372 0.000001 0.000000 0.000000 
-0.460615 44.846931 12.458099 -42.998793 -4.136557 2.422460 7.502634 0.104338 -0.273741 14.995301 -0.536680 -3.364869 14.995289 -0.536679 -3.364868 10.087482 4.210553 -6.895532 -12.663086 -4.957766 7.400186 -0.000000 -0.000000 -0.000000 1.726015 5.465625 -16.315302 -7.376539 -8.013324 -53.993489 61.901663 -138.907961 51.038961 7.647901 -37.099166 9.418921 -1.379406 25.639082 -13.119175 17.172202 -8.437568 13.899275 0.000007 0.000001 -0.000005 0.000001 0.000003 0.000001 -6.749917 -0.694872 -16.569984 -3.075835 -3.226590 -59.602881 -0.000000 0.000006 0.000000 -0.000000 -0.000000 -0.000002 1.583171 1.124704 -33.243115 -4.799484 -5.297621 -76.753786 0.000004 -0.000005 -0.000002 0.000000 0.000001 -0.000000 -4.029749 6.502868 -44.459983 -2.499860 -4.176024 -73.016498 0.000001 0.000006 0.000003 0.000001 0.000001 -0.000000 -10.853013 1.790185 -60.729514 -1.086121 -6.078682 -62.950295 0.000000 0.000001 0.000001 0.000001 0.000002 0.000001 1.170689 15.937886 9.843180 -2.929148 34.045577 61.663829 -36.981793 60.127187 37.767384 28.912502 8.922601 -24.048920 32.087341 18.252538 -16.399551 -0.642349 -0.093888 -1.289330 -0.000011 0.000019 -0.000001 -0.000000 -0.000002 -0.000002 -7.357347 -4.098797 21.461952 -1.896886 1.785429 52.718866 -0.000004 0.000000 0.000001 0.000000 -0.000000 -0.000001 -0.171120 -1.435596 27.295955 -2.048391 3.323791 53.401131 -0.000002 0.000002 -0.000005 0.000002 0.000001 -0.000001 -0.441619 -1.501772 25.641141 -1.538115 4.317109 46.062707 -0.000003 0.000003 -0.000001 0.000002 -0.000001 -0.000001 1.101060 1.373434 27.000424 -1.337016 7.693610 37.915586 -0.000002 0.000002 -0.000002 -0.000000 0.000000 -0.000001 -50.498143 12.682597 19.760222 85.816402 -0.245616 -4.009957 7.947718 -3.869800 12.950343 -2.131335 -0.037686 0.000375 0.000000 0.000000 -0.000000 -61.222749 -3.159696 -16.830882 71.670814 6.780687 1.192413 7.229771 -0.919456 -10.180829 0.574796 -0.110541 0.263378 -0.000000 -0.000000 -0.000000 
-0.450421 44.866135 12.504097 -43.890300 -3.984940 2.182790 7.530646 0.075808 -0.260560 15.049934 -0.560427 -3.373519 15.049927 -0.560427 -3.373518 10.007899 4.220852 -6.291988 -12.246376 -4.470109 7.261794 -0.000000 0.000000 -0.000000 1.769307 6.117773 -16.325286 -10.284758 -7.205771 -55.571580 62.722057 -140.152955 52.471781 0.542413 -37.111444 -2.650838 -1.379387 25.639106 -13.119208 17.172204 -8.437576 13.899271 0.000005 0.000002 -0.000004 -0.000000 0.000001 0.000000 -6.710770 -0.557014 -15.130623 -3.075832 -3.226591 -59.602874 -0.000001 0.000010 -0.000000 -0.000002 -0.000000 -0.000002 1.709778 1.327027 -30.819572 -4.799484 -5.297621 -76.753786 0.000005 -0.000002 -0.000001 0.000000 -0.000002 -0.000000 -3.912584 6.626588 -42.041351 -2.499857 -4.176021 -73.016498 0.000001 0.000008 0.000003 0.000001 0.000001 0.000002 -10.740510 1.856370 -58.298629 -1.086121 -6.078681 -62.950295 -0.000001 -0.000001 0.000001 -0.000001 0.000001 0.000001 1.448758 15.150582 8.167865 -3.542773 41.539930 60.100515 -36.650839 58.139267 36.546758 27.622934 8.687750 -35.746857 28.649748 20.054315 -15.569029 -0.642348 -0.093892 -1.289330 -0.000006 0.000021 0.000001 -0.000002 0.000003 -0.000002 -7.385061 -4.030194 22.407706 -2.132236 1.955330 55.619385 -0.000007 0.000003 0.000001 -0.000000 0.000001 0.000000 -0.222107 -1.339706 28.679438 -2.260646 3.472963 56.309504 -0.000005 -0.000001 -0.000001 -0.000000 -0.000002 0.000002 -0.529741 -1.326379 27.697329 -1.722686 4.485655 48.973501 0.000001 0.000002 0.000000 0.000001 -0.000001 -0.000001 0.969948 1.617158 29.539561 -1.479286 7.865362 40.833688 0.000001 0.000002 -0.000002 0.000001 -0.000001 -0.000001 -49.725474 12.271886 19.816252 86.140515 -0.467318 -4.069757 8.211325 -3.641580 12.908177 -2.584712 -0.037691 0.000236 0.000000 -0.000000 -0.000000 -60.048756 -3.295563 -16.891063 71.693019 6.732316 1.222288 7.212935 -1.007099 -10.088359 0.653213 -0.110549 0.263377 0.000000 -0.000000 -0.000000 
